<?xml version="1.0" standalone="no"?>
<!DOCTYPE svg PUBLIC "-//W3C//DTD SVG 20010904//EN"
 "http://www.w3.org/TR/2001/REC-SVG-20010904/DTD/svg10.dtd">
<svg version="1.0" xmlns="http://www.w3.org/2000/svg"
 width="700.000000pt" height="700.000000pt" viewBox="0 0 700.000000 700.000000"
 preserveAspectRatio="xMidYMid meet">
<metadata>
Created by potrace 1.11, written by Peter Selinger 2001-2013
</metadata>
<g transform="translate(0.000000,700.000000) scale(0.100000,-0.100000)"
fill="#000000" stroke="none">
<path d="M4225 6989 c-317 -31 -634 -125 -925 -276 -439 -227 -819 -601 -1057
-1037 l-48 -89 -100 -17 c-115 -20 -198 -41 -308 -77 -43 -14 -80 -23 -82 -22
-1 2 43 108 99 234 l103 230 50 6 c243 30 413 219 413 459 0 324 -312 544
-619 435 -275 -97 -389 -443 -226 -685 19 -29 35 -57 35 -64 0 -14 -263 -606
-270 -606 -9 0 -310 497 -310 512 0 7 6 22 13 33 23 35 46 102 57 167 26 167
-63 360 -210 453 -186 117 -435 85 -584 -76 -85 -91 -125 -193 -126 -314 0
-125 47 -239 134 -325 90 -89 177 -128 313 -138 l83 -7 199 -325 199 -325 -25
-20 c-343 -264 -577 -543 -763 -910 -119 -235 -200 -488 -242 -765 -26 -163
-31 -529 -10 -675 71 -495 252 -919 550 -1284 79 -97 265 -283 365 -364 48
-39 87 -75 87 -79 0 -4 -28 -8 -63 -8 -234 0 -430 -166 -467 -393 -50 -316
236 -589 548 -523 303 64 460 393 318 667 -13 26 -22 50 -19 52 2 3 55 -19
116 -48 343 -161 679 -237 1062 -238 409 -1 789 87 1143 264 86 43 159 76 163
73 4 -2 20 -28 37 -57 110 -194 339 -430 544 -561 74 -47 244 -131 327 -163
153 -57 412 -103 586 -103 273 0 584 82 821 217 202 114 418 309 551 497 279
393 378 915 262 1380 -72 285 -218 552 -412 753 l-70 72 51 68 c193 263 353
617 422 938 153 711 1 1439 -421 2022 -32 45 -59 83 -59 86 0 2 35 6 79 9 64
4 93 11 155 41 285 135 354 495 139 727 -91 99 -207 150 -338 150 -123 0 -230
-45 -321 -135 -91 -90 -133 -182 -136 -304 -1 -34 -3 -61 -6 -61 -2 0 -40 27
-85 59 -495 358 -1117 528 -1722 470z m545 -385 c784 -111 1448 -649 1724
-1395 141 -381 168 -816 76 -1229 -44 -197 -144 -443 -259 -634 -43 -71 -207
-295 -314 -428 l-30 -38 185 -182 c197 -194 255 -268 334 -428 23 -47 54 -124
70 -173 26 -80 27 -91 16 -135 -19 -71 -105 -238 -163 -315 -67 -89 -163 -185
-253 -252 -572 -429 -1436 -345 -1891 183 -38 44 -121 164 -183 266 -63 102
-118 186 -123 186 -4 0 -109 -52 -231 -114 -435 -224 -707 -300 -1115 -313
-406 -13 -780 66 -1128 237 -567 279 -954 755 -1075 1319 -27 126 -24 202 15
376 125 554 444 1022 910 1334 288 193 573 299 952 353 l155 22 68 135 c87
172 148 273 237 392 268 355 644 619 1076 755 135 43 329 79 532 98 70 7 307
-5 415 -20z"/>
<path d="M3782 6081 c-82 -30 -132 -64 -190 -125 -151 -160 -168 -393 -41
-578 l41 -60 -216 -523 c-119 -288 -223 -543 -232 -567 -41 -117 47 -238 173
-238 38 0 181 50 693 243 355 134 646 241 648 237 2 -5 -531 -1005 -543 -1018
-2 -2 -86 41 -187 95 l-183 100 -2 -46 c-5 -93 32 -1166 40 -1165 13 3 1026
628 1026 634 1 3 -82 50 -184 104 -101 54 -183 102 -181 105 2 3 182 339 401
745 250 465 399 754 402 777 12 84 -32 165 -104 195 -73 31 -89 26 -799 -241
-373 -140 -680 -253 -682 -250 -3 2 58 155 133 338 l138 334 68 12 c286 52
455 342 356 611 -43 118 -119 200 -236 258 -70 34 -81 37 -180 40 -86 2 -116
-1 -159 -17z"/>
</g>
</svg>
